# xmcd
#
# Track frame offsets: 
#        150
#        12749
#        18708
#        30100
#        49081
#        66411
#        80145
#        99202
#        136579
#        224395
#        251042
#        306710
#        329409
#
# Disc length: 4690 seconds
#
# Revision: 0
# Processed by: cddbd v1.5.2PL0 Copyright (c) Steve Scherf et al.
# Submitted via: ExactAudioCopy v1.0b3
#
DISCID=ba12500d
DTITLE=Nana Vasconcelos - Nana - Nelson Angelo - Novelli | Africadeus
DYEAR=2012
DGENRE=World
TTITLE0=No Sul Do Pólo Norte
TTITLE1=No Norte Do Pólo Sul
TTITLE2=Aranda
TTITLE3=Toshiro
TTITLE4=Baião Do Acordar
TTITLE5=Garimpo
TTITLE6=Tiro Crusado
TTITLE7=Pinote
TTITLE8=Africadeus
TTITLE9=Aboios
TTITLE10=Seleção De Folclore
TTITLE11=Improvisation
TTITLE12=Kirie Elei Son
EXTD=
EXTT0=
EXTT1=
EXTT2=
EXTT3=
EXTT4=
EXTT5=
EXTT6=
EXTT7=
EXTT8=
EXTT9=
EXTT10=
EXTT11=
EXTT12=
PLAYORDER=
